# Blender 4.1.1
# www.blender.org
mtllib F.mtl
o テキスト
v -0.060500 0.294000 0.100000
v -0.060500 0.105000 0.100000
v 0.205500 0.105000 0.100000
v 0.205500 0.017000 0.100000
v -0.060500 0.017000 0.100000
v -0.060500 -0.300000 0.100000
v -0.158500 -0.300000 0.100000
v -0.158500 0.382000 0.100000
v 0.205500 0.382000 0.100000
v 0.205500 0.294000 0.100000
v -0.060500 0.294000 -0.100000
v -0.060500 0.105000 -0.100000
v 0.205500 0.105000 -0.100000
v 0.205500 0.017000 -0.100000
v -0.060500 0.017000 -0.100000
v -0.060500 -0.300000 -0.100000
v -0.158500 -0.300000 -0.100000
v -0.158500 0.382000 -0.100000
v 0.205500 0.382000 -0.100000
v 0.205500 0.294000 -0.100000
v -0.060500 0.294000 -0.100000
v -0.045049 0.278549 -0.097553
v -0.031111 0.264611 -0.090451
v -0.020049 0.253549 -0.079389
v -0.012947 0.246447 -0.065451
v -0.010500 0.244000 -0.050000
v -0.010500 0.244000 0.050000
v -0.012947 0.246447 0.065451
v -0.020049 0.253549 0.079389
v -0.031111 0.264611 0.090451
v -0.045049 0.278549 0.097553
v -0.060500 0.294000 0.100000
v -0.060500 0.105000 -0.100000
v -0.045049 0.120451 -0.097553
v -0.031111 0.134389 -0.090451
v -0.020049 0.145451 -0.079389
v -0.012947 0.152553 -0.065451
v -0.010500 0.155000 -0.050000
v -0.010500 0.155000 0.050000
v -0.012947 0.152553 0.065451
v -0.020049 0.145451 0.079389
v -0.031111 0.134389 0.090451
v -0.045049 0.120451 0.097553
v -0.060500 0.105000 0.100000
v 0.205500 0.105000 -0.100000
v 0.220951 0.120451 -0.097553
v 0.234889 0.134389 -0.090451
v 0.245951 0.145451 -0.079389
v 0.253053 0.152553 -0.065451
v 0.255500 0.155000 -0.050000
v 0.255500 0.155000 0.050000
v 0.253053 0.152553 0.065451
v 0.245951 0.145451 0.079389
v 0.234889 0.134389 0.090451
v 0.220951 0.120451 0.097553
v 0.205500 0.105000 0.100000
v 0.205500 0.017000 -0.100000
v 0.220951 0.001549 -0.097553
v 0.234889 -0.012389 -0.090451
v 0.245951 -0.023451 -0.079389
v 0.253053 -0.030553 -0.065451
v 0.255500 -0.033000 -0.050000
v 0.255500 -0.033000 0.050000
v 0.253053 -0.030553 0.065451
v 0.245951 -0.023451 0.079389
v 0.234889 -0.012389 0.090451
v 0.220951 0.001549 0.097553
v 0.205500 0.017000 0.100000
v -0.060500 0.017000 -0.100000
v -0.045049 0.001549 -0.097553
v -0.031111 -0.012389 -0.090451
v -0.020049 -0.023451 -0.079389
v -0.012947 -0.030553 -0.065451
v -0.010500 -0.033000 -0.050000
v -0.010500 -0.033000 0.050000
v -0.012947 -0.030553 0.065451
v -0.020049 -0.023451 0.079389
v -0.031111 -0.012389 0.090451
v -0.045049 0.001549 0.097553
v -0.060500 0.017000 0.100000
v -0.060500 -0.300000 -0.100000
v -0.045049 -0.315451 -0.097553
v -0.031111 -0.329389 -0.090451
v -0.020049 -0.340451 -0.079389
v -0.012947 -0.347553 -0.065451
v -0.010500 -0.350000 -0.050000
v -0.010500 -0.350000 0.050000
v -0.012947 -0.347553 0.065451
v -0.020049 -0.340451 0.079389
v -0.031111 -0.329389 0.090451
v -0.045049 -0.315451 0.097553
v -0.060500 -0.300000 0.100000
v -0.158500 -0.300000 -0.100000
v -0.173951 -0.315451 -0.097553
v -0.187889 -0.329389 -0.090451
v -0.198951 -0.340451 -0.079389
v -0.206053 -0.347553 -0.065451
v -0.208500 -0.350000 -0.050000
v -0.208500 -0.350000 0.050000
v -0.206053 -0.347553 0.065451
v -0.198951 -0.340451 0.079389
v -0.187889 -0.329389 0.090451
v -0.173951 -0.315451 0.097553
v -0.158500 -0.300000 0.100000
v -0.158500 0.382000 -0.100000
v -0.173951 0.397451 -0.097553
v -0.187889 0.411389 -0.090451
v -0.198951 0.422451 -0.079389
v -0.206053 0.429553 -0.065451
v -0.208500 0.432000 -0.050000
v -0.208500 0.432000 0.050000
v -0.206053 0.429553 0.065451
v -0.198951 0.422451 0.079389
v -0.187889 0.411389 0.090451
v -0.173951 0.397451 0.097553
v -0.158500 0.382000 0.100000
v 0.205500 0.382000 -0.100000
v 0.220951 0.397451 -0.097553
v 0.234889 0.411389 -0.090451
v 0.245951 0.422451 -0.079389
v 0.253053 0.429553 -0.065451
v 0.255500 0.432000 -0.050000
v 0.255500 0.432000 0.050000
v 0.253053 0.429553 0.065451
v 0.245951 0.422451 0.079389
v 0.234889 0.411389 0.090451
v 0.220951 0.397451 0.097553
v 0.205500 0.382000 0.100000
v 0.205500 0.294000 -0.100000
v 0.220951 0.278549 -0.097553
v 0.234889 0.264611 -0.090451
v 0.245951 0.253549 -0.079389
v 0.253053 0.246447 -0.065451
v 0.255500 0.244000 -0.050000
v 0.255500 0.244000 0.050000
v 0.253053 0.246447 0.065451
v 0.245951 0.253549 0.079389
v 0.234889 0.264611 0.090451
v 0.220951 0.278549 0.097553
v 0.205500 0.294000 0.100000
vn -0.0000 -0.0000 1.0000
vn -0.0000 -0.0000 -1.0000
vn 0.1203 0.1203 -0.9854
vn 0.0787 -0.0787 -0.9938
vn 0.1203 -0.1203 -0.9854
vn 0.2882 -0.2882 -0.9132
vn 0.4666 0.4666 -0.7513
vn 0.4666 -0.4666 -0.7513
vn 0.6319 0.6319 -0.4487
vn 0.6319 -0.6319 -0.4487
vn 0.7024 -0.7023 -0.1158
vn 0.7024 0.7023 0.1158
vn 0.7024 -0.7023 0.1158
vn 0.6319 0.6319 0.4487
vn 0.6319 -0.6319 0.4487
vn 0.4666 -0.4666 0.7513
vn 0.2882 0.2882 0.9132
vn 0.2882 -0.2882 0.9132
vn 0.1203 0.1203 0.9854
vn 0.1203 -0.1203 0.9854
vn 0.0787 -0.0787 0.9938
vn 0.0787 0.0787 -0.9938
vn 0.2882 0.2882 -0.9132
vn 0.1980 0.1980 -0.9600
vn 0.3610 0.3610 -0.8599
vn 0.5226 0.5226 -0.6736
vn 0.7024 0.7023 -0.1158
vn 0.6543 0.6543 -0.3793
vn 0.7032 0.7032 0.1049
vn 0.6543 0.6543 0.3793
vn 0.5226 0.5226 0.6736
vn 0.4666 0.4666 0.7513
vn 0.3610 0.3610 0.8599
vn 0.1980 0.1980 0.9600
vn 0.0787 0.0787 0.9938
vn 0.1980 -0.1980 -0.9600
vn 0.5226 -0.5226 -0.6736
vn 0.6543 -0.6543 -0.3793
vn 0.7032 -0.7032 -0.1049
vn 0.7032 0.7032 -0.1049
vn 0.7032 -0.7032 0.1049
vn 0.6543 -0.6543 0.3793
vn 0.5226 -0.5226 0.6736
vn 0.3610 -0.3610 0.8599
vn 0.3610 -0.3610 -0.8599
vn 0.7023 -0.7024 -0.1158
vn 0.1980 -0.1980 0.9600
vn -0.1980 -0.1980 -0.9600
vn -0.3610 -0.3610 -0.8599
vn -0.5226 -0.5226 -0.6736
vn -0.6543 -0.6543 -0.3793
vn -0.7032 -0.7032 -0.1049
vn -0.7032 -0.7032 0.1049
vn -0.6543 -0.6543 0.3793
vn -0.5226 -0.5226 0.6736
vn -0.3610 -0.3610 0.8599
vn -0.1980 -0.1980 0.9600
vn -0.0787 -0.0787 0.9938
vn -0.1980 0.1980 -0.9600
vn -0.0787 -0.0787 -0.9938
vn -0.3610 0.3610 -0.8599
vn -0.5226 0.5226 -0.6736
vn -0.6543 0.6543 -0.3793
vn -0.7032 0.7032 0.1049
vn -0.6543 0.6543 0.3793
vn -0.3610 0.3610 0.8599
vn -0.1980 0.1980 0.9600
vn -0.0787 0.0787 0.9938
vn -0.0787 0.0787 -0.9938
vn -0.7032 0.7032 -0.1049
vn -0.5226 0.5226 0.6736
vt 0.666667 0.000000
vt 0.000000 0.000000
vt 0.777778 0.000000
vt 0.888889 0.000000
vt 1.000000 0.000000
vt 0.111111 0.000000
vt 0.444444 0.000000
vt 0.222222 0.000000
vt 0.333333 0.000000
vt 0.555556 0.000000
vt 0.100000 0.090909
vt 0.000000 0.090909
vt 0.000000 0.181818
vt 0.100000 0.272727
vt 0.000000 0.272727
vt 0.100000 0.363636
vt 0.000000 0.363636
vt 0.000000 0.454545
vt 0.100000 0.545455
vt 0.000000 0.545455
vt 0.100000 0.636364
vt 0.000000 0.636364
vt 0.000000 0.727273
vt 0.100000 0.818182
vt 0.000000 0.818182
vt 0.100000 0.909091
vt 0.000000 0.909091
vt 0.000000 1.000000
vt 0.200000 0.000000
vt 0.100000 0.000000
vt 0.100000 0.181818
vt 0.200000 0.090909
vt 0.200000 0.181818
vt 0.200000 0.272727
vt 0.100000 0.454545
vt 0.200000 0.363636
vt 0.200000 0.545455
vt 0.200000 0.636364
vt 0.200000 0.727273
vt 0.100000 0.727273
vt 0.200000 0.818182
vt 0.200000 0.909091
vt 0.200000 1.000000
vt 0.100000 1.000000
vt 0.300000 0.000000
vt 0.300000 0.090909
vt 0.300000 0.272727
vt 0.300000 0.363636
vt 0.300000 0.454545
vt 0.200000 0.454545
vt 0.300000 0.545455
vt 0.300000 0.636364
vt 0.300000 0.727273
vt 0.300000 0.818182
vt 0.300000 1.000000
vt 0.400000 0.090909
vt 0.400000 0.181818
vt 0.300000 0.181818
vt 0.400000 0.272727
vt 0.400000 0.363636
vt 0.400000 0.454545
vt 0.400000 0.545455
vt 0.400000 0.636364
vt 0.400000 0.727273
vt 0.300000 0.909091
vt 0.400000 0.818182
vt 0.400000 0.909091
vt 0.500000 0.000000
vt 0.400000 0.000000
vt 0.500000 0.090909
vt 0.500000 0.181818
vt 0.500000 0.272727
vt 0.500000 0.363636
vt 0.500000 0.545455
vt 0.500000 0.636364
vt 0.500000 0.727273
vt 0.500000 0.818182
vt 0.500000 0.909091
vt 0.500000 1.000000
vt 0.400000 1.000000
vt 0.600000 0.090909
vt 0.600000 0.181818
vt 0.600000 0.272727
vt 0.600000 0.363636
vt 0.600000 0.454545
vt 0.500000 0.454545
vt 0.600000 0.545455
vt 0.600000 0.636364
vt 0.600000 0.727273
vt 0.600000 0.818182
vt 0.600000 0.909091
vt 0.600000 1.000000
vt 0.700000 0.090909
vt 0.600000 0.000000
vt 0.700000 0.181818
vt 0.700000 0.272727
vt 0.700000 0.363636
vt 0.700000 0.545455
vt 0.700000 0.636364
vt 0.700000 0.818182
vt 0.700000 0.909091
vt 0.700000 1.000000
vt 0.800000 0.090909
vt 0.700000 0.000000
vt 0.800000 0.181818
vt 0.800000 0.272727
vt 0.800000 0.363636
vt 0.700000 0.454545
vt 0.800000 0.545455
vt 0.800000 0.636364
vt 0.800000 0.727273
vt 0.700000 0.727273
vt 0.800000 0.818182
vt 0.800000 0.909091
vt 0.800000 1.000000
vt 0.900000 0.090909
vt 0.800000 0.000000
vt 0.900000 0.181818
vt 0.900000 0.272727
vt 0.900000 0.363636
vt 0.900000 0.454545
vt 0.800000 0.454545
vt 0.900000 0.545455
vt 0.900000 0.636364
vt 0.900000 0.727273
vt 0.900000 0.818182
vt 0.900000 0.909091
vt 0.900000 1.000000
vt 1.000000 0.090909
vt 0.900000 0.000000
vt 1.000000 0.181818
vt 1.000000 0.272727
vt 1.000000 0.363636
vt 1.000000 0.454545
vt 1.000000 0.545455
vt 1.000000 0.636364
vt 1.000000 0.727273
vt 1.000000 0.818182
vt 1.000000 0.909091
vt 1.000000 1.000000
s 0
usemtl マテリアル.001
f 7/1/1 1/2/1 8/3/1
f 1/2/1 9/4/1 8/3/1
f 1/2/1 10/5/1 9/4/1
f 7/1/1 2/6/1 1/2/1
f 7/1/1 5/7/1 2/6/1
f 5/7/1 3/8/1 2/6/1
f 5/7/1 4/9/1 3/8/1
f 7/1/1 6/10/1 5/7/1
f 17/1/2 18/3/2 11/2/2
f 11/2/2 18/3/2 19/4/2
f 11/2/2 19/4/2 20/5/2
f 17/1/2 11/2/2 12/6/2
f 17/1/2 12/6/2 15/7/2
f 15/7/2 12/6/2 13/8/2
f 15/7/2 13/8/2 14/9/2
f 17/1/2 15/7/2 16/10/2
s 1
f 34/11/3 21/2/4 22/12/5
f 23/13/6 34/11/3 22/12/5
f 36/14/7 23/13/6 24/15/8
f 37/16/9 24/15/8 25/17/10
f 26/18/11 37/16/9 25/17/10
f 39/19/12 26/18/11 27/20/13
f 40/21/14 27/20/13 28/22/15
f 29/23/16 40/21/14 28/22/15
f 42/24/17 29/23/16 30/25/18
f 43/26/19 30/25/18 31/27/20
f 32/28/21 43/26/19 31/27/20
f 34/11/3 45/29/22 33/30/22
f 35/31/23 46/32/24 34/11/3
f 36/14/7 47/33/25 35/31/23
f 37/16/9 48/34/26 36/14/7
f 38/35/27 49/36/28 37/16/9
f 51/37/29 38/35/27 39/19/12
f 52/38/30 39/19/12 40/21/14
f 53/39/31 40/21/14 41/40/32
f 54/41/33 41/40/32 42/24/17
f 55/42/34 42/24/17 43/26/19
f 56/43/35 43/26/19 44/44/35
f 46/32/24 57/45/4 45/29/22
f 47/33/25 58/46/36 46/32/24
f 60/47/37 47/33/25 48/34/26
f 61/48/38 48/34/26 49/36/28
f 62/49/39 49/36/28 50/50/40
f 63/51/41 50/50/40 51/37/29
f 64/52/42 51/37/29 52/38/30
f 65/53/43 52/38/30 53/39/31
f 66/54/44 53/39/31 54/41/33
f 55/42/34 66/54/44 54/41/33
f 68/55/21 55/42/34 56/43/35
f 70/56/5 57/45/4 58/46/36
f 71/57/6 58/46/36 59/58/45
f 72/59/8 59/58/45 60/47/37
f 73/60/10 60/47/37 61/48/38
f 74/61/46 61/48/38 62/49/39
f 75/62/13 62/49/39 63/51/41
f 64/52/42 75/62/13 63/51/41
f 65/53/43 76/63/15 64/52/42
f 66/54/44 77/64/16 65/53/43
f 67/65/47 78/66/18 66/54/44
f 68/55/21 79/67/20 67/65/47
f 70/56/5 81/68/4 69/69/4
f 71/57/6 82/70/36 70/56/5
f 72/59/8 83/71/45 71/57/6
f 73/60/10 84/72/37 72/59/8
f 74/61/46 85/73/38 73/60/10
f 87/74/41 74/61/46 75/62/13
f 88/75/42 75/62/13 76/63/15
f 89/76/43 76/63/15 77/64/16
f 90/77/44 77/64/16 78/66/18
f 91/78/47 78/66/18 79/67/20
f 92/79/21 79/67/20 80/80/21
f 94/81/48 81/68/4 82/70/36
f 95/82/49 82/70/36 83/71/45
f 96/83/50 83/71/45 84/72/37
f 97/84/51 84/72/37 85/73/38
f 98/85/52 85/73/38 86/86/39
f 99/87/53 86/86/39 87/74/41
f 100/88/54 87/74/41 88/75/42
f 101/89/55 88/75/42 89/76/43
f 102/90/56 89/76/43 90/77/44
f 103/91/57 90/77/44 91/78/47
f 104/92/58 91/78/47 92/79/21
f 106/93/59 93/94/60 94/81/48
f 107/95/61 94/81/48 95/82/49
f 108/96/62 95/82/49 96/83/50
f 97/84/51 108/96/62 96/83/50
f 98/85/52 109/97/63 97/84/51
f 111/98/64 98/85/52 99/87/53
f 112/99/65 99/87/53 100/88/54
f 101/89/55 112/99/65 100/88/54
f 114/100/66 101/89/55 102/90/56
f 115/101/67 102/90/56 103/91/57
f 116/102/68 103/91/57 104/92/58
f 118/103/24 105/104/69 106/93/59
f 119/105/25 106/93/59 107/95/61
f 120/106/26 107/95/61 108/96/62
f 121/107/28 108/96/62 109/97/63
f 110/108/70 121/107/28 109/97/63
f 123/109/29 110/108/70 111/98/64
f 124/110/30 111/98/64 112/99/65
f 125/111/31 112/99/65 113/112/71
f 126/113/33 113/112/71 114/100/66
f 127/114/34 114/100/66 115/101/67
f 128/115/35 115/101/67 116/102/68
f 130/116/36 117/117/22 118/103/24
f 131/118/45 118/103/24 119/105/25
f 132/119/37 119/105/25 120/106/26
f 133/120/38 120/106/26 121/107/28
f 134/121/39 121/107/28 122/122/40
f 135/123/41 122/122/40 123/109/29
f 136/124/42 123/109/29 124/110/30
f 137/125/43 124/110/30 125/111/31
f 138/126/44 125/111/31 126/113/33
f 139/127/47 126/113/33 127/114/34
f 140/128/21 127/114/34 128/115/35
f 22/129/5 129/130/4 130/116/36
f 23/131/6 130/116/36 131/118/45
f 24/132/8 131/118/45 132/119/37
f 25/133/10 132/119/37 133/120/38
f 26/134/11 133/120/38 134/121/39
f 27/135/13 134/121/39 135/123/41
f 136/124/42 27/135/13 135/123/41
f 137/125/43 28/136/15 136/124/42
f 138/126/44 29/137/16 137/125/43
f 139/127/47 30/138/18 138/126/44
f 140/128/21 31/139/20 139/127/47
f 34/11/3 33/30/22 21/2/4
f 23/13/6 35/31/23 34/11/3
f 36/14/7 35/31/23 23/13/6
f 37/16/9 36/14/7 24/15/8
f 26/18/11 38/35/27 37/16/9
f 39/19/12 38/35/27 26/18/11
f 40/21/14 39/19/12 27/20/13
f 29/23/16 41/40/32 40/21/14
f 42/24/17 41/40/32 29/23/16
f 43/26/19 42/24/17 30/25/18
f 32/28/21 44/44/35 43/26/19
f 34/11/3 46/32/24 45/29/22
f 35/31/23 47/33/25 46/32/24
f 36/14/7 48/34/26 47/33/25
f 37/16/9 49/36/28 48/34/26
f 38/35/27 50/50/40 49/36/28
f 51/37/29 50/50/40 38/35/27
f 52/38/30 51/37/29 39/19/12
f 53/39/31 52/38/30 40/21/14
f 54/41/33 53/39/31 41/40/32
f 55/42/34 54/41/33 42/24/17
f 56/43/35 55/42/34 43/26/19
f 46/32/24 58/46/36 57/45/4
f 47/33/25 59/58/45 58/46/36
f 60/47/37 59/58/45 47/33/25
f 61/48/38 60/47/37 48/34/26
f 62/49/39 61/48/38 49/36/28
f 63/51/41 62/49/39 50/50/40
f 64/52/42 63/51/41 51/37/29
f 65/53/43 64/52/42 52/38/30
f 66/54/44 65/53/43 53/39/31
f 55/42/34 67/65/47 66/54/44
f 68/55/21 67/65/47 55/42/34
f 70/56/5 69/69/4 57/45/4
f 71/57/6 70/56/5 58/46/36
f 72/59/8 71/57/6 59/58/45
f 73/60/10 72/59/8 60/47/37
f 74/61/46 73/60/10 61/48/38
f 75/62/13 74/61/46 62/49/39
f 64/52/42 76/63/15 75/62/13
f 65/53/43 77/64/16 76/63/15
f 66/54/44 78/66/18 77/64/16
f 67/65/47 79/67/20 78/66/18
f 68/55/21 80/80/21 79/67/20
f 70/56/5 82/70/36 81/68/4
f 71/57/6 83/71/45 82/70/36
f 72/59/8 84/72/37 83/71/45
f 73/60/10 85/73/38 84/72/37
f 74/61/46 86/86/39 85/73/38
f 87/74/41 86/86/39 74/61/46
f 88/75/42 87/74/41 75/62/13
f 89/76/43 88/75/42 76/63/15
f 90/77/44 89/76/43 77/64/16
f 91/78/47 90/77/44 78/66/18
f 92/79/21 91/78/47 79/67/20
f 94/81/48 93/94/60 81/68/4
f 95/82/49 94/81/48 82/70/36
f 96/83/50 95/82/49 83/71/45
f 97/84/51 96/83/50 84/72/37
f 98/85/52 97/84/51 85/73/38
f 99/87/53 98/85/52 86/86/39
f 100/88/54 99/87/53 87/74/41
f 101/89/55 100/88/54 88/75/42
f 102/90/56 101/89/55 89/76/43
f 103/91/57 102/90/56 90/77/44
f 104/92/58 103/91/57 91/78/47
f 106/93/59 105/104/69 93/94/60
f 107/95/61 106/93/59 94/81/48
f 108/96/62 107/95/61 95/82/49
f 97/84/51 109/97/63 108/96/62
f 98/85/52 110/108/70 109/97/63
f 111/98/64 110/108/70 98/85/52
f 112/99/65 111/98/64 99/87/53
f 101/89/55 113/112/71 112/99/65
f 114/100/66 113/112/71 101/89/55
f 115/101/67 114/100/66 102/90/56
f 116/102/68 115/101/67 103/91/57
f 118/103/24 117/117/22 105/104/69
f 119/105/25 118/103/24 106/93/59
f 120/106/26 119/105/25 107/95/61
f 121/107/28 120/106/26 108/96/62
f 110/108/70 122/122/40 121/107/28
f 123/109/29 122/122/40 110/108/70
f 124/110/30 123/109/29 111/98/64
f 125/111/31 124/110/30 112/99/65
f 126/113/33 125/111/31 113/112/71
f 127/114/34 126/113/33 114/100/66
f 128/115/35 127/114/34 115/101/67
f 130/116/36 129/130/4 117/117/22
f 131/118/45 130/116/36 118/103/24
f 132/119/37 131/118/45 119/105/25
f 133/120/38 132/119/37 120/106/26
f 134/121/39 133/120/38 121/107/28
f 135/123/41 134/121/39 122/122/40
f 136/124/42 135/123/41 123/109/29
f 137/125/43 136/124/42 124/110/30
f 138/126/44 137/125/43 125/111/31
f 139/127/47 138/126/44 126/113/33
f 140/128/21 139/127/47 127/114/34
f 22/129/5 21/5/4 129/130/4
f 23/131/6 22/129/5 130/116/36
f 24/132/8 23/131/6 131/118/45
f 25/133/10 24/132/8 132/119/37
f 26/134/11 25/133/10 133/120/38
f 27/135/13 26/134/11 134/121/39
f 136/124/42 28/136/15 27/135/13
f 137/125/43 29/137/16 28/136/15
f 138/126/44 30/138/18 29/137/16
f 139/127/47 31/139/20 30/138/18
f 140/128/21 32/140/21 31/139/20
